<svg width="1600" height="1000" viewBox="0 0 1600 1000" fill="none" xmlns="http://www.w3.org/2000/svg">
  <defs>
    <linearGradient id="g1" x1="0" y1="0" x2="1" y2="1">
      <stop offset="0" stop-color="#f7fbff"/>
      <stop offset="1" stop-color="#e9f7ef"/>
    </linearGradient>
    <linearGradient id="g2" x1="0" y1="0" x2="1" y2="1">
      <stop offset="0" stop-color="#0f766e"/>
      <stop offset="1" stop-color="#0ea5e9"/>
    </linearGradient>
  </defs>
  <rect width="1600" height="1000" fill="url(#g1)"/>
  <circle cx="1360" cy="120" r="220" fill="#bae6fd" fill-opacity="0.55"/>
  <circle cx="200" cy="860" r="280" fill="#bbf7d0" fill-opacity="0.5"/>

  <rect x="180" y="150" width="1240" height="700" rx="28" fill="#ffffff" fill-opacity="0.72" stroke="#d2e8f1" stroke-width="2"/>
  <rect x="220" y="210" width="300" height="140" rx="16" fill="#eef7ff" stroke="#c8dced"/>
  <rect x="550" y="210" width="300" height="140" rx="16" fill="#eefdf4" stroke="#c7eadb"/>
  <rect x="880" y="210" width="300" height="140" rx="16" fill="#f6f4ff" stroke="#ddd8fb"/>

  <rect x="220" y="390" width="960" height="400" rx="18" fill="#fdfefe" stroke="#d5e6ef"/>
  <rect x="250" y="430" width="420" height="18" rx="9" fill="#dbeafe"/>
  <rect x="250" y="470" width="880" height="14" rx="7" fill="#e6eef5"/>
  <rect x="250" y="500" width="810" height="14" rx="7" fill="#e6eef5"/>
  <rect x="250" y="530" width="860" height="14" rx="7" fill="#e6eef5"/>
  <rect x="250" y="560" width="760" height="14" rx="7" fill="#e6eef5"/>

  <path d="M1260 788V460" stroke="url(#g2)" stroke-width="14" stroke-linecap="round"/>
  <circle cx="1260" cy="430" r="36" fill="#ffffff" stroke="#5ad0be" stroke-width="8"/>
  <path d="M1239 430h42M1260 409v42" stroke="#0f766e" stroke-width="8" stroke-linecap="round"/>
</svg>
