<svg width="1600" height="1000" viewBox="0 0 1600 1000" fill="none" xmlns="http://www.w3.org/2000/svg">
  <defs>
    <linearGradient id="bg" x1="0" y1="0" x2="1" y2="1">
      <stop offset="0" stop-color="#f3f9ff"/>
      <stop offset="1" stop-color="#e7f8ef"/>
    </linearGradient>
    <linearGradient id="wave" x1="0" y1="0" x2="1" y2="1">
      <stop offset="0" stop-color="#0ea5e9"/>
      <stop offset="1" stop-color="#0f766e"/>
    </linearGradient>
  </defs>
  <rect width="1600" height="1000" fill="url(#bg)"/>
  <circle cx="1420" cy="160" r="230" fill="#bae6fd" fill-opacity="0.5"/>
  <circle cx="180" cy="820" r="260" fill="#bbf7d0" fill-opacity="0.45"/>
  <path d="M0 720C220 640 360 640 560 720C760 800 940 800 1140 720C1340 640 1460 640 1600 700V1000H0V720Z" fill="url(#wave)" fill-opacity="0.16"/>
  <rect x="250" y="180" width="1100" height="640" rx="32" fill="#ffffff" fill-opacity="0.7" stroke="#d5e7f0" stroke-width="2"/>
  <rect x="340" y="280" width="920" height="90" rx="18" fill="#f8fcff" stroke="#d8e8f2"/>
  <rect x="340" y="410" width="920" height="90" rx="18" fill="#f8fcff" stroke="#d8e8f2"/>
  <rect x="340" y="540" width="920" height="90" rx="18" fill="#f8fcff" stroke="#d8e8f2"/>
</svg>
