<svg width="1600" height="1000" viewBox="0 0 1600 1000" fill="none" xmlns="http://www.w3.org/2000/svg">
  <defs>
    <linearGradient id="bg" x1="0" y1="0" x2="1" y2="1">
      <stop offset="0" stop-color="#f3f8ff"/>
      <stop offset="1" stop-color="#e8f8ef"/>
    </linearGradient>
    <linearGradient id="line" x1="0" y1="0" x2="1" y2="1">
      <stop offset="0" stop-color="#0ea5e9"/>
      <stop offset="1" stop-color="#0f766e"/>
    </linearGradient>
  </defs>
  <rect width="1600" height="1000" fill="url(#bg)"/>
  <circle cx="1460" cy="200" r="210" fill="#bfdbfe" fill-opacity="0.6"/>
  <circle cx="180" cy="140" r="170" fill="#a7f3d0" fill-opacity="0.45"/>

  <rect x="170" y="130" width="1260" height="740" rx="32" fill="#ffffff" fill-opacity="0.78" stroke="#d2e6ef" stroke-width="2"/>

  <rect x="240" y="210" width="420" height="620" rx="18" fill="#f8fcff" stroke="#d6e8f2"/>
  <rect x="710" y="210" width="620" height="620" rx="18" fill="#fcfffe" stroke="#d6eee4"/>

  <rect x="280" y="260" width="340" height="24" rx="12" fill="#dbeafe"/>
  <rect x="280" y="306" width="250" height="16" rx="8" fill="#e8edf5"/>
  <rect x="280" y="336" width="280" height="16" rx="8" fill="#e8edf5"/>
  <rect x="280" y="366" width="220" height="16" rx="8" fill="#e8edf5"/>

  <g stroke="url(#line)" stroke-width="10" stroke-linecap="round">
    <path d="M780 306h470"/>
    <path d="M780 420h470"/>
    <path d="M780 534h470"/>
    <path d="M780 648h470"/>
  </g>
  <g fill="#ffffff" stroke="#0f766e" stroke-width="6">
    <circle cx="860" cy="306" r="20"/>
    <circle cx="1020" cy="420" r="20"/>
    <circle cx="940" cy="534" r="20"/>
    <circle cx="1140" cy="648" r="20"/>
  </g>
</svg>
