<svg width="1600" height="1000" viewBox="0 0 1600 1000" fill="none" xmlns="http://www.w3.org/2000/svg">
  <defs>
    <linearGradient id="bg" x1="0" y1="0" x2="1" y2="1">
      <stop offset="0" stop-color="#f3fbff"/>
      <stop offset="1" stop-color="#ecfbf2"/>
    </linearGradient>
  </defs>
  <rect width="1600" height="1000" fill="url(#bg)"/>
  <circle cx="1370" cy="170" r="220" fill="#bfdbfe" fill-opacity="0.55"/>
  <circle cx="240" cy="860" r="260" fill="#bbf7d0" fill-opacity="0.48"/>

  <rect x="140" y="130" width="1320" height="740" rx="30" fill="#ffffff" fill-opacity="0.8" stroke="#d6e8f1" stroke-width="2"/>

  <rect x="220" y="220" width="1160" height="120" rx="18" fill="#f9fdff" stroke="#d8e8f2"/>
  <rect x="260" y="260" width="380" height="24" rx="12" fill="#dbeafe"/>
  <rect x="260" y="296" width="280" height="16" rx="8" fill="#e7edf5"/>

  <rect x="220" y="390" width="360" height="430" rx="18" fill="#fbfffd" stroke="#d8eee2"/>
  <rect x="620" y="390" width="360" height="430" rx="18" fill="#fbfffd" stroke="#d8eee2"/>
  <rect x="1020" y="390" width="360" height="430" rx="18" fill="#fbfffd" stroke="#d8eee2"/>

  <g stroke="#0f766e" stroke-width="8" stroke-linecap="round">
    <path d="M300 500h200"/>
    <path d="M300 540h150"/>
    <path d="M700 500h200"/>
    <path d="M700 540h140"/>
    <path d="M1100 500h200"/>
    <path d="M1100 540h160"/>
  </g>

  <g fill="#0f766e" fill-opacity="0.15" stroke="#0f766e" stroke-width="6">
    <circle cx="270" cy="450" r="24"/>
    <circle cx="670" cy="450" r="24"/>
    <circle cx="1070" cy="450" r="24"/>
  </g>
</svg>
